<svg width="1720" height="1080" viewBox="0 0 1720 1080" fill="none" xmlns="http://www.w3.org/2000/svg">
<g clip-path="url(#clip0_232_1198)">
<path d="M1710.06 0H0V1070.09H1710.06V0Z" fill="#141414"/>
<path d="M1710.06 41.6143H0V44.5867H1710.06V41.6143Z" fill="#0A0A0A"/>
<path d="M1710.06 1028.48H0V1031.45H1710.06V1028.48Z" fill="#0A0A0A"/>
<path d="M44.7405 0H41.7578V1070.09H44.7405V0Z" fill="#0A0A0A"/>
<path d="M1669.3 0H1666.31V1070.09H1669.3V0Z" fill="#0A0A0A"/>
<path d="M1719 30H1V1079H1719V30Z" fill="url(#paint0_radial_232_1198)"/>
<path d="M1720 0H0V1080H1720V0Z" fill="url(#paint1_radial_232_1198)"/>
<path d="M1719 0H0V29H1719V0Z" fill="#2A2A2A"/>
<path d="M1719 29H0V30H1719V29Z" fill="#404040"/>
<path d="M55 7H40V22H55V7Z" stroke="#555555"/>
<path d="M49.0778 14.4915V15.2727H45.896V14.4915H49.0778Z" fill="#555555"/>
<path d="M75 7H60V22H75V7Z" stroke="#555555"/>
<path d="M63.8623 18V10.7273H71.135V18H63.8623ZM64.6436 17.2188H70.3538V11.5085H64.6436V17.2188Z" fill="#555555"/>
<path d="M95 7H80V22H95V7Z" stroke="#888888"/>
<path d="M84.2027 18.76L83.6627 18.22L86.9427 14.92L83.6627 11.62L84.2027 11.08L87.4827 14.38L90.7427 11.08L91.2827 11.62L88.0027 14.92L91.2827 18.22L90.7427 18.76L87.4827 15.48L84.2027 18.76Z" fill="#888888"/>
<path d="M1623.52 9H1605.62C1604.52 9 1603.63 9.88722 1603.63 10.9817V16.9266C1603.63 18.021 1604.52 18.9083 1605.62 18.9083H1623.52C1624.62 18.9083 1625.51 18.021 1625.51 16.9266V10.9817C1625.51 9.88722 1624.62 9 1623.52 9Z" stroke="#444444"/>
<path d="M1623.52 9.99023H1605.63C1605.08 9.99023 1604.63 10.4338 1604.63 10.9811V16.926C1604.63 17.4732 1605.08 17.9168 1605.63 17.9168H1623.52C1624.07 17.9168 1624.52 17.4732 1624.52 16.926V10.9811C1624.52 10.4338 1624.07 9.99023 1623.52 9.99023Z" fill="white" fill-opacity="0.7"/>
<path d="M1578.23 18V11.4545H1580.44C1580.95 11.4545 1581.37 11.5472 1581.7 11.7326C1582.02 11.9158 1582.27 12.1641 1582.43 12.4773C1582.58 12.7905 1582.66 13.1399 1582.66 13.5256C1582.66 13.9112 1582.58 14.2617 1582.43 14.5771C1582.27 14.8924 1582.03 15.1438 1581.7 15.3313C1581.38 15.5167 1580.96 15.6094 1580.45 15.6094H1578.86V14.9062H1580.42C1580.78 14.9062 1581.06 14.8455 1581.27 14.7241C1581.48 14.6026 1581.64 14.4386 1581.73 14.2319C1581.83 14.0231 1581.88 13.7876 1581.88 13.5256C1581.88 13.2635 1581.83 13.0291 1581.73 12.8224C1581.64 12.6158 1581.48 12.4538 1581.27 12.3366C1581.05 12.2173 1580.77 12.1577 1580.41 12.1577H1579.02V18H1578.23ZM1585.13 18L1583.34 11.4545H1584.14L1585.51 16.7855H1585.57L1586.97 11.4545H1587.86L1589.26 16.7855H1589.32L1590.69 11.4545H1591.49L1589.7 18H1588.89L1587.44 12.7841H1587.39L1585.95 18H1585.13ZM1592.48 18V11.4545H1594.69C1595.2 11.4545 1595.62 11.5419 1595.95 11.7166C1596.28 11.8892 1596.52 12.1268 1596.68 12.4293C1596.84 12.7319 1596.92 13.076 1596.92 13.4616C1596.92 13.8473 1596.84 14.1893 1596.68 14.4876C1596.52 14.7859 1596.28 15.0202 1595.96 15.1907C1595.63 15.359 1595.21 15.4432 1594.71 15.4432H1592.92V14.7273H1594.68C1595.03 14.7273 1595.31 14.6761 1595.52 14.5739C1595.74 14.4716 1595.89 14.3267 1595.99 14.1392C1596.09 13.9496 1596.14 13.7237 1596.14 13.4616C1596.14 13.1996 1596.09 12.9705 1595.99 12.7745C1595.89 12.5785 1595.74 12.4272 1595.52 12.3207C1595.31 12.212 1595.02 12.1577 1594.67 12.1577H1593.27V18H1592.48ZM1595.56 15.0597L1597.17 18H1596.25L1594.67 15.0597H1595.56Z" fill="#555555"/>
<path d="M1676.88 9H1658.99C1657.89 9 1657 9.88722 1657 10.9817V16.9266C1657 18.021 1657.89 18.9083 1658.99 18.9083H1676.88C1677.98 18.9083 1678.87 18.021 1678.87 16.9266V10.9817C1678.87 9.88722 1677.98 9 1676.88 9Z" stroke="#333333"/>
<path d="M1676.88 9.99023H1658.99C1658.44 9.99023 1657.99 10.4338 1657.99 10.9811V16.926C1657.99 17.4732 1658.44 17.9168 1658.99 17.9168H1676.88C1677.43 17.9168 1677.88 17.4732 1677.88 16.926V10.9811C1677.88 10.4338 1677.43 9.99023 1676.88 9.99023Z" fill="#555555" fill-opacity="0.3"/>
<path d="M1631.94 18V11.4545H1632.73V14.3693H1636.22V11.4545H1637.01V18H1636.22V15.0724H1632.73V18H1631.94ZM1640.62 18H1638.6V11.4545H1640.71C1641.34 11.4545 1641.88 11.5856 1642.34 11.8477C1642.79 12.1076 1643.13 12.4815 1643.38 12.9695C1643.62 13.4553 1643.74 14.0369 1643.74 14.7145C1643.74 15.3963 1643.61 15.9833 1643.37 16.4755C1643.13 16.9656 1642.78 17.3427 1642.31 17.6069C1641.85 17.869 1641.28 18 1640.62 18ZM1639.39 17.2969H1640.57C1641.11 17.2969 1641.56 17.1925 1641.91 16.9837C1642.27 16.7749 1642.53 16.4776 1642.71 16.092C1642.88 15.7063 1642.97 15.2472 1642.97 14.7145C1642.97 14.1861 1642.88 13.7312 1642.71 13.3498C1642.54 12.9663 1642.28 12.6722 1641.94 12.4677C1641.59 12.261 1641.17 12.1577 1640.66 12.1577H1639.39V17.2969ZM1647.09 18H1645.07V11.4545H1647.18C1647.81 11.4545 1648.35 11.5856 1648.81 11.8477C1649.26 12.1076 1649.6 12.4815 1649.84 12.9695C1650.08 13.4553 1650.21 14.0369 1650.21 14.7145C1650.21 15.3963 1650.08 15.9833 1649.84 16.4755C1649.6 16.9656 1649.24 17.3427 1648.78 17.6069C1648.32 17.869 1647.75 18 1647.09 18ZM1645.86 17.2969H1647.03C1647.58 17.2969 1648.02 17.1925 1648.38 16.9837C1648.74 16.7749 1649 16.4776 1649.18 16.092C1649.35 15.7063 1649.44 15.2472 1649.44 14.7145C1649.44 14.1861 1649.35 13.7312 1649.18 13.3498C1649.01 12.9663 1648.75 12.6722 1648.41 12.4677C1648.06 12.261 1647.64 12.1577 1647.12 12.1577H1645.86V17.2969Z" fill="#444444"/>
</g>
<rect x="0.5" y="0.5" width="1719" height="1079" rx="19.5" stroke="#404040"/>
<defs>
<radialGradient id="paint0_radial_232_1198" cx="0" cy="0" r="1" gradientUnits="userSpaceOnUse" gradientTransform="translate(860 533.52) scale(1030.8 629.4)">
<stop stop-color="#1C1C1C"/>
<stop offset="1" stop-color="#080808"/>
</radialGradient>
<radialGradient id="paint1_radial_232_1198" cx="0" cy="0" r="1" gradientUnits="userSpaceOnUse" gradientTransform="translate(860 540) scale(1118 702)">
<stop stop-color="#111111" stop-opacity="0"/>
<stop offset="1" stop-opacity="0.85"/>
</radialGradient>
<clipPath id="clip0_232_1198">
<rect width="1720" height="1080" rx="20" fill="white"/>
</clipPath>
</defs>
</svg>
