<svg viewBox="0 0 31 30" fill="none" xmlns="http://www.w3.org/2000/svg">
<path d="M12.968 21.712C9.01467 21.232 6.22933 18.388 6.22933 14.704C6.22933 13.2067 6.768 11.5893 7.66667 10.512C7.27733 9.524 7.33733 7.42667 7.78667 6.55867C8.984 6.40933 10.6013 7.03867 11.56 7.90533C12.6973 7.54667 13.896 7.36667 15.364 7.36667C16.8307 7.36667 18.0293 7.54667 19.1067 7.876C20.0347 7.03733 21.6827 6.40933 22.88 6.55867C23.3 7.36667 23.36 9.464 22.9693 10.4813C23.9293 11.62 24.4373 13.148 24.4373 14.704C24.4373 18.388 21.652 21.1733 17.64 21.6827C18.6573 22.3413 19.3467 23.7787 19.3467 25.4253V28.54C19.3467 29.4387 20.0947 29.948 20.9933 29.588C26.4147 27.5213 30.6667 22.1013 30.6667 15.3933C30.6667 6.91733 23.7787 0 15.304 0C6.82667 0 0 6.91733 0 15.3933C0 22.0413 4.22267 27.5533 9.91333 29.6187C10.7213 29.9187 11.5 29.3787 11.5 28.5707V26.1733C11.0444 26.3638 10.5565 26.4651 10.0627 26.472C8.08533 26.472 6.91733 25.3947 6.08 23.388C5.75067 22.5787 5.39067 22.1 4.70133 22.0107C4.34133 21.98 4.22267 21.8307 4.22267 21.6507C4.22267 21.2907 4.82267 21.0227 5.42 21.0227C6.28933 21.0227 7.03733 21.5613 7.816 22.6693C8.416 23.5373 9.044 23.9267 9.79333 23.9267C10.5413 23.9267 11.02 23.6573 11.7093 22.968C12.2187 22.46 12.608 22.012 12.968 21.712Z" fill="currentColor"/>
</svg>
