<svg viewBox="0 0 50 50" fill="none" xmlns="http://www.w3.org/2000/svg">
    <g mask="url(#prefix__mask0_210_13)">
        <path d="M25 50c13.807 0 25-11.193 25-25S38.807 0 25 0 0 11.193 0 25s11.193 25 25 25z" fill="currentColor" />
        <path
            d="M37.16 21.312c-.756-.78-1.83-1.206-3.143-1.206-1.631 0-2.884.662-3.605 1.904v-6.16h-3.783v16.88h3.783v-5.935c0-1.383.284-2.27.71-2.79.412-.52.992-.72 1.619-.72.556 0 .992.177 1.3.496.307.331.485.84.485 1.549v7.387h3.782v-8.132c0-1.383-.402-2.507-1.146-3.275l-.001.002zm-16.913-1.206c-1.631 0-2.885.662-3.605 1.904v-6.16h-3.783v16.88h3.783v-5.935c0-1.383.282-2.27.709-2.79.412-.52.992-.72 1.62-.72.555 0 .992.177 1.3.496.306.331.483.84.483 1.549v7.387h3.783v-8.132c0-1.383-.401-2.507-1.158-3.287-.745-.78-1.82-1.192-3.132-1.192z"
            fill="#0D0D0D" />
    </g>
</svg>