<svg viewBox="0 0 64 64" fill="none" xmlns="http://www.w3.org/2000/svg">
<path d="M38.8745 16.6933C39.1511 16.0763 39.878 15.7967 40.4748 16.1146C43.7241 17.8455 46.374 20.537 48.053 23.8355C49.9177 27.4986 50.4725 31.6896 49.6251 35.7118C48.7777 39.7339 46.5792 43.3449 43.3951 45.9444C40.211 48.5439 36.2331 49.9753 32.1227 50.0006C28.0124 50.026 24.0171 48.6438 20.8012 46.0838C17.5853 43.5238 15.3424 39.9402 14.4455 35.9288C13.5485 31.9174 14.0515 27.7198 15.8709 24.034C17.5091 20.7151 20.1256 17.991 23.3533 16.2202C23.9462 15.8949 24.6764 16.1656 24.9606 16.7791C25.2448 17.3927 24.9749 18.1163 24.3856 18.4479C21.6639 19.9793 19.4573 22.3005 18.0667 25.1178C16.4948 28.3022 16.0603 31.9288 16.8352 35.3945C17.6101 38.8601 19.5479 41.9562 22.3263 44.168C25.1047 46.3797 28.5564 47.5739 32.1076 47.552C35.6588 47.5301 39.0956 46.2934 41.8465 44.0476C44.5974 41.8017 46.4968 38.682 47.229 35.207C47.9611 31.732 47.4818 28.1111 45.8708 24.9463C44.4455 22.1463 42.2104 19.8526 39.4701 18.3549C38.8767 18.0306 38.5979 17.3103 38.8745 16.6933Z" fill="currentColor"/>
<line x1="32.0117" y1="11.001" x2="32.0117" y2="31.001" stroke="currentColor" stroke-width="2" stroke-linecap="round"/>
</svg>
