<svg viewBox="0 0 23 11" fill="none" xmlns="http://www.w3.org/2000/svg">
<path d="M20.3844 0.5H2.48844C1.39025 0.5 0.5 1.38722 0.5 2.48165V8.42661C0.5 9.52104 1.39025 10.4083 2.48844 10.4083H20.3844C21.4826 10.4083 22.3728 9.52104 22.3728 8.42661V2.48165C22.3728 1.38722 21.4826 0.5 20.3844 0.5Z" stroke="#444444"/>
<path d="M20.3902 1.49023H2.49422C1.94513 1.49023 1.5 1.93384 1.5 2.48106V8.42601C1.5 8.97323 1.94513 9.41684 2.49422 9.41684H20.3902C20.9393 9.41684 21.3844 8.97323 21.3844 8.42601V2.48106C21.3844 1.93384 20.9393 1.49023 20.3902 1.49023Z" fill="white" fill-opacity="0.7"/>
</svg>
