<svg viewBox="0 0 23 11" fill="none" xmlns="http://www.w3.org/2000/svg">
<path d="M20.3844 0.5H2.48844C1.39025 0.5 0.5 1.38722 0.5 2.48165V8.42661C0.5 9.52104 1.39025 10.4083 2.48844 10.4083H20.3844C21.4826 10.4083 22.3728 9.52104 22.3728 8.42661V2.48165C22.3728 1.38722 21.4826 0.5 20.3844 0.5Z" stroke="#333333"/>
<path d="M20.3824 1.49023H2.48641C1.93731 1.49023 1.49219 1.93384 1.49219 2.48106V8.42601C1.49219 8.97323 1.93731 9.41684 2.48641 9.41684H20.3824C20.9315 9.41684 21.3766 8.97323 21.3766 8.42601V2.48106C21.3766 1.93384 20.9315 1.49023 20.3824 1.49023Z" fill="#555555" fill-opacity="0.3"/>
</svg>
